<svg id="Layer_1" height="512" viewBox="0 0 150 150" width="512" xmlns="http://www.w3.org/2000/svg" data-name="Layer 1"><circle cx="75" cy="75" fill="#efc84a" r="64"/><path d="m70.41 72.87h5.06v16.99h-5.06z" fill="#3a556a"/><path d="m71.42 88.24h41.95v6.48h-41.95z" fill="#3a556a"/><path d="m102.85 64.47-4-17.32-5.14 1.68-47.6 8.91v24.75l7.89-1.56.21-.06 44-9.92a6.85 6.85 0 0 0 3.66-2.53 5 5 0 0 0 .98-3.95z" fill="#2f4859"/><path d="m49.24 57.16-10.62 2 5.1 22.09a2 2 0 0 0 2.35 1.27l7.93-1.59z" fill="#64798a"/><path d="m98.49 44-62.49 12.4a2.11 2.11 0 0 0 -1.73 2.32c.26 2 .11 1.33 1.61 5.57a5.34 5.34 0 0 0 6.12 3.32l60.67-12.08a1.87 1.87 0 0 0 1.47-2.2l-1.28-6.43a3.69 3.69 0 0 0 -4.37-2.9z" fill="#3a556a"/><path d="m73.25 85.41a6.07 6.07 0 1 0 6.08 6.07 6.07 6.07 0 0 0 -6.08-6.07z" fill="#2f4859"/><circle cx="73.25" cy="91.48" fill="#3a556a" r="3.24"/><path d="m112.44 76.89a3.35 3.35 0 0 0 -3.36 3.36v22.46a3.35 3.35 0 0 0 3.36 3.36h3.35v-29.18z" fill="#2f4859"/></svg>